#!OML:ASF G:\JayActor3\Patient Classification 1\Patient 1\Session 5\male.ASF
:FULLY-SPECIFIED
:DEGREES
444
root 19.3469 17.6913 -5.13654 -18.0551 85.3317 -18.3071
lowerback 3.69353 -1.23619 0.0433762
upperback 0.93345 -1.64385 -0.739133
thorax -1.13514 -0.816631 -0.705831
lowerneck -6.71476 0.962693 1.7898
upperneck 11.9406 0.914357 2.16047
head 4.68311 0.695981 0.430914
rclavicle 2.66371e-014 2.38542e-015
rhumerus -34.5575 -2.36238 -87.2538
rradius 30.39
rwrist -2.37727
rhand -22.2192 -38.8101
rfingers 7.12502
rthumb 4.19711 -68.7485
lclavicle 2.66371e-014 2.38542e-015
lhumerus -34.464 8.05882 79.834
lradius 24.1247
lwrist 15.5678
lhand -17.0595 10.8794
lfingers 7.12502
lthumb 9.17797 40.6597
rfemur -24.9573 5.46898 20.2153
rtibia 35.2171
rfoot -3.66575 -8.22983
rtoes -4.77274
lfemur 11.0467 9.21281 -19.9023
ltibia 8.17609
lfoot 8.31073 -3.79746
ltoes -28.4895
445
root 19.241 17.6841 -5.15015 -18.5883 85.2433 -18.7863
lowerback 3.6903 -1.22249 0.165426
upperback 0.953294 -1.62072 -0.727628
thorax -1.11575 -0.805246 -0.763804
lowerneck -6.70571 0.970036 1.78851
upperneck 11.8901 0.929791 2.11789
head 4.66615 0.699714 0.418566
rclavicle 2.60159e-014 9.14409e-015
rhumerus -34.572 -2.32114 -87.2559
rradius 30.4987
rwrist -2.39806
rhand -22.2643 -38.7511
rfingers 7.12502
rthumb 4.15353 -68.6904
lclavicle 2.60159e-014 9.14409e-015
lhumerus -34.6109 8.18295 79.7254
lradius 24.0911
lwrist 15.5158
lhand -17.0345 10.9027
lfingers 7.12502
lthumb 9.20202 40.6819
rfemur -24.6605 5.25091 20.404
rtibia 36.5206
rfoot -4.45575 -8.37022
rtoes -5.82112
lfemur 9.52936 9.38541 -19.8974
ltibia 10.4109
lfoot 7.37777 -3.81197
ltoes -28.4418
446
root 19.1364 17.6762 -5.16188 -18.9273 85.169 -19.0864
lowerback 3.6628 -1.21076 0.251062
upperback 0.965714 -1.60171 -0.714244
thorax -1.08932 -0.795865 -0.799718
lowerneck -6.69286 0.979894 1.789
upperneck 11.8322 0.948185 2.07848
head 4.64631 0.705053 0.407021
rclavicle 2.80038e-014 -2.78299e-015
rhumerus -34.6025 -2.28034 -87.252
rradius 30.6155
rwrist -2.4516
rhand -22.3462 -38.6898
rfingers 7.12502
rthumb 4.07442 -68.6306
lclavicle 2.80038e-014 -2.78299e-015
lhumerus -34.7558 8.345 79.6028
lradius 24.0318
lwrist 15.4631
lhand -17.0201 10.9175
lfingers 7.12502
lthumb 9.21597 40.6961
rfemur -24.374 5.1263 20.5592
rtibia 37.922
rfoot -5.13663 -8.60942
rtoes -6.61789
lfemur 8.20239 9.42084 -19.9259
ltibia 12.2596
lfoot 6.63385 -3.73397
ltoes -28.4741
447
root 19.0329 17.6675 -5.17209 -19.1249 85.115 -19.2489
lowerback 3.61968 -1.2021 0.307261
upperback 0.974236 -1.58801 -0.701308
thorax -1.05742 -0.789083 -0.819644
lowerneck -6.67293 0.990513 1.79067
upperneck 11.7667 0.967246 2.04337
head 4.62295 0.710915 0.396566
rclavicle -7.82715e-015 3.18055e-015
rhumerus -34.6424 -2.24036 -87.243
rradius 30.733
rwrist -2.5443
rhand -22.4501 -38.6284
rfingers 7.12502
rthumb 3.97409 -68.5711
lclavicle -7.82715e-015 3.18055e-015
lhumerus -34.8993 8.52558 79.4726
lradius 23.9538
lwrist 15.4158
lhand -17.0147 10.9505
lfingers 7.12502
lthumb 9.22115 40.7289
rfemur -24.0758 5.0677 20.684
rtibia 39.3983
rfoot -5.70913 -8.87516
rtoes -7.17047
lfemur 7.01489 9.46362 -19.9554
ltibia 13.8502
lfoot 6.00496 -3.70737
ltoes -28.5407
448
root 18.9308 17.6577 -5.18113 -19.2877 85.0855 -19.3712
lowerback 3.56676 -1.19712 0.34657
upperback 0.980384 -1.57995 -0.689915
thorax -1.02213 -0.785083 -0.831612
lowerneck -6.63133 1.0006 1.80459
upperneck 11.6876 0.985524 2.00452
head 4.5919 0.716473 0.382708
rclavicle -9.06955e-015 -9.54166e-015
rhumerus -34.6965 -2.21474 -87.2262
rradius 30.8487
rwrist -2.65767
rhand -22.5506 -38.5665
rfingers 7.12502
rthumb 3.87706 -68.511
lclavicle -9.06955e-015 -9.54166e-015
lhumerus -35.0428 8.71591 79.3352
lradius 23.8566
lwrist 15.3685
lhand -17.003 10.9762
lfingers 7.12502
lthumb 9.23249 40.754
rfemur -23.7449 5.04154 20.7873
rtibia 40.9238
rfoot -6.19503 -9.08968
rtoes -7.3817
lfemur 5.94459 9.51332 -19.9773
ltibia 15.2446
lfoot 5.46211 -3.73279
ltoes -28.6014
449
root 18.8301 17.6469 -5.18943 -19.4857 85.0882 -19.5164
lowerback 3.51377 -1.20051 0.378729
upperback 0.985236 -1.58338 -0.680739
thorax -0.988204 -0.786806 -0.841315
lowerneck -6.57954 1.0099 1.82147
upperneck 11.6076 1.00258 1.96759
head 4.55889 0.721701 0.368826
rclavicle -6.95746e-016 -7.95139e-016
rhumerus -34.7564 -2.19799 -87.204
rradius 30.9516
rwrist -2.79874
rhand -22.6534 -38.5134
rfingers 7.12502
rthumb 3.77786 -68.4596
lclavicle -6.95746e-016 -7.95139e-016
lhumerus -35.1902 8.90238 79.1968
lradius 23.7484
lwrist 15.3301
lhand -16.9899 11.0109
lfingers 7.12502
lthumb 9.24506 40.7882
rfemur -23.366 5.0113 20.8729
rtibia 42.4745
rfoot -6.55671 -9.18267
rtoes -7.62346
lfemur 4.97844 9.56534 -19.9898
ltibia 16.4794
lfoot 4.98481 -3.80498
ltoes -28.5877
450
root 18.7308 17.6355 -5.19715 -19.7594 85.1235 -19.7249
lowerback 3.46442 -1.21053 0.410966
upperback 0.985641 -1.59577 -0.675489
thorax -0.961145 -0.793039 -0.854562
lowerneck -6.51147 1.01546 1.84571
upperneck 11.5259 1.01447 1.93037
head 4.5227 0.724706 0.353247
rclavicle 1.19519e-014 5.56597e-015
rhumerus -34.8248 -2.20934 -87.1706
rradius 31.0356
rwrist -2.93705
rhand -22.7401 -38.4597
rfingers 7.12502
rthumb 3.6941 -68.4075
lclavicle 1.19519e-014 5.56597e-015
lhumerus -35.3464 9.08 79.0558
lradius 23.6332
lwrist 15.2919
lhand -16.9651 11.0481
lfingers 7.12502
lthumb 9.26899 40.8244
rfemur -22.933 4.95774 20.9429
rtibia 44.0272
rfoot -6.7824 -9.10557
rtoes -7.80068
lfemur 4.10293 9.61345 -19.9928
ltibia 17.5794
lfoot 4.5696 -3.90652
ltoes -28.4308
451
root 18.6328 17.6238 -5.20441 -20.0867 85.1932 -19.9739
lowerback 3.42571 -1.22941 0.440081
upperback 0.979764 -1.6202 -0.673883
thorax -0.94673 -0.805343 -0.868967
lowerneck -6.49324 1.01668 1.8504
upperneck 11.1169 1.02654 1.88236
head 4.88168 0.720353 0.379115
rclavicle -1.65737e-014 -5.1684e-015
rhumerus -34.8982 -2.23629 -87.1275
rradius 31.0947
rwrist -3.06695
rhand -22.8091 -38.4137
rfingers 7.12502
rthumb 3.62746 -68.3626
lclavicle -1.65737e-014 -5.1684e-015
lhumerus -35.5051 9.26004 78.9104
lradius 23.5016
lwrist 15.2477
lhand -16.9388 11.1
lfingers 7.12502
lthumb 9.29435 40.8752
rfemur -22.4426 4.87339 20.9934
rtibia 45.5631
rfoot -6.86168 -8.83106
rtoes -7.99247
lfemur 3.30717 9.65522 -19.9918
ltibia 18.5614
lfoot 4.21072 -4.05085
ltoes -28.2091
452
root 18.5359 17.6123 -5.21121 -20.5584 85.2861 -20.3552
lowerback 3.40003 -1.25407 0.475807
upperback 0.966551 -1.65217 -0.672477
thorax -0.947474 -0.821513 -0.886576
lowerneck -6.42125 1.01269 1.85951
upperneck 11.0652 1.02511 1.86345
head 4.84775 0.717992 0.369836
rclavicle 1.47349e-014 -2.78299e-015
rhumerus -34.98 -2.28608 -87.0717
rradius 31.128
rwrist -3.17008
rhand -22.8616 -38.3702
rfingers 7.12502
rthumb 3.57676 -68.3199
lclavicle 1.47349e-014 -2.78299e-015
lhumerus -35.6646 9.44013 78.7634
lradius 23.3536
lwrist 15.1933
lhand -16.9108 11.1503
lfingers 7.12502
lthumb 9.32141 40.9242
rfemur -21.8913 4.77081 21.0367
rtibia 47.0635
rfoot -6.77301 -8.36117
rtoes -8.2513
lfemur 2.58521 9.69336 -19.978
ltibia 19.4349
lfoot 3.90303 -4.23535
ltoes -27.9637
453
root 18.4403 17.6013 -5.21756 -21.2006 85.3934 -20.8942
lowerback 3.38954 -1.28378 0.519769
upperback 0.946997 -1.69061 -0.668729
thorax -0.963541 -0.841022 -0.905679
lowerneck -6.35332 1.00676 1.85854
upperneck 11.0285 1.02102 1.85322
head 4.82014 0.714676 0.365365
rclavicle -7.33018e-015 -1.15295e-014
rhumerus -35.0672 -2.34534 -87.0054
rradius 31.1357
rwrist -3.23702
rhand -22.8952 -38.329
rfingers 7.12502
rthumb 3.54427 -68.2792
lclavicle -7.33018e-015 -1.15295e-014
lhumerus -35.8247 9.6318 78.6111
lradius 23.194
lwrist 15.1164
lhand -16.8761 11.2184
lfingers 7.12502
lthumb 9.35487 40.9908
rfemur -21.2757 4.66261 21.0781
rtibia 48.5132
rfoot -6.52398 -7.72321
rtoes -8.50301
lfemur 1.93501 9.72594 -19.9489
ltibia 20.2037
lfoot 3.65074 -4.44966
ltoes -27.6861
454
root 18.3459 17.5913 -5.2234 -21.9686 85.5095 -21.5523
lowerback 3.38442 -1.31502 0.569527
upperback 0.920792 -1.73096 -0.66407
thorax -0.989663 -0.861587 -0.926776
lowerneck -6.27846 0.999243 1.855
upperneck 10.9989 1.01505 1.84571
head 4.79373 0.710636 0.362196
rclavicle -1.31446e-014 2.78299e-015
rhumerus -35.1621 -2.41608 -86.9319
rradius 31.1199
rwrist -3.27348
rhand -22.9255 -38.2955
rfingers 7.12502
rthumb 3.515 -68.2463
lclavicle -1.31446e-014 2.78299e-015
lhumerus -35.9848 9.83225 78.4525
lradius 23.0239
lwrist 15.0137
lhand -16.8344 11.2718
lfingers 7.12502
lthumb 9.39515 41.0424
rfemur -20.5996 4.56005 21.1189
rtibia 49.8979
rfoot -6.12656 -6.97276
rtoes -8.76264
lfemur 1.35086 9.7623 -19.9085
ltibia 20.8663
lfoot 3.45069 -4.70441
ltoes -27.4543
455
root 18.2528 17.5828 -5.2285 -22.8636 85.6279 -22.3333
lowerback 3.37798 -1.34575 0.625202
upperback 0.891402 -1.77044 -0.65784
thorax -1.01848 -0.881789 -0.94958
lowerneck -6.20889 0.991181 1.84423
upperneck 10.9793 1.00818 1.8448
head 4.77207 0.706409 0.362665
rclavicle -9.19379e-015 9.93923e-015
rhumerus -35.2597 -2.49642 -86.8539
rradius 31.085
rwrist -3.29097
rhand -22.9633 -38.268
rfingers 7.12502
rthumb 3.47852 -68.2194
lclavicle -9.19379e-015 9.93923e-015
lhumerus -36.1432 10.0324 78.293
lradius 22.8544
lwrist 14.8929
lhand -16.7922 11.3251
lfingers 7.12502
lthumb 9.43587 41.0939
rfemur -19.8634 4.47807 21.1658
rtibia 51.2042
rfoot -5.58951 -6.19107
rtoes -9.01284
lfemur 0.831568 9.80471 -19.855
ltibia 21.4202
lfoot 3.30157 -4.99282
ltoes -27.2687
